<svg xmlns="http://www.w3.org/2000/svg" viewBox="0 0 360 80" fill="none">
  <path d="M103.714 59.4286V19.5714H112.286V59.4286H103.714Z" fill="white"/>
  <path d="M122 59.4286V19.5714H130.571V51.7143H149.857V59.4286H122Z" fill="white"/>
  <path d="M156 59.4286V19.5714H164.571V36.5714H182V19.5714H190.571V59.4286H182V44.2857H164.571V59.4286H156Z" fill="white"/>
  <path d="M197.286 59.4286V19.5714H205.857V51.7143H225.143V59.4286H197.286Z" fill="white"/>
  <path d="M244 59.4286L229.714 19.5714H239.143L248.429 47.4286L258 19.5714H267.286L253 59.4286H244Z" fill="white"/>
  <path d="M272 59.4286V19.5714H301.143V27.2857H280.571V35.7143H299.429V43.4286H280.571V51.7143H301.143V59.4286H272Z" fill="white"/>
  <path d="M308.429 59.4286V19.5714H317V59.4286H308.429Z" fill="white"/>
  <path d="M325.143 59.4286V27.2857H314.143V19.5714H344.714V27.2857H333.714V59.4286H325.143Z" fill="white"/>
  <rect width="80" height="80" rx="10" fill="#2FD66F"/>
  <path d="M37.7604 58.7229C37.7604 58.7229 42.1937 60.4271 47.32 60.4271C52.4464 60.4271 56.8797 58.7229 56.8797 58.7229V31.9292C56.8797 31.9292 52.4464 33.6333 47.32 33.6333C42.1937 33.6333 37.7604 31.9292 37.7604 31.9292V58.7229Z" fill="white"/>
  <path d="M23.1203 58.7229C23.1203 58.7229 27.5536 60.4271 32.68 60.4271C37.8063 60.4271 42.2397 58.7229 42.2397 58.7229V21.2771C42.2397 21.2771 37.8063 22.9812 32.68 22.9812C27.5536 22.9812 23.1203 21.2771 23.1203 21.2771V58.7229Z" fill="white" fill-opacity="0.5"/>
  <path d="M20 58.7229V19.5729C20 19.5729 24.4333 21.2771 29.5596 21.2771C34.686 21.2771 39.1193 19.5729 39.1193 19.5729" stroke="white" stroke-width="4" stroke-linecap="round" stroke-linejoin="round"/>
  <path d="M60 58.7229V29.5729C60 29.5729 55.5667 31.2771 50.4404 31.2771C45.314 31.2771 40.8807 29.5729 40.8807 29.5729" stroke="white" stroke-width="4" stroke-linecap="round" stroke-linejoin="round"/>
</svg> 